<svg id="svg" version="1.1" xmlns="http://www.w3.org/2000/svg" xmlns:xlink="http://www.w3.org/1999/xlink" width="400" height="476.9230769230769" viewBox="0, 0, 400,476.9230769230769"><g id="svgg"><path id="path0" d="M27.006 28.900 C 26.319 33.695,27.033 400.961,27.735 404.400 C 30.897 419.880,37.068 426.206,51.600 428.864 C 53.022 429.124,75.031 429.244,113.858 429.203 C 183.104 429.131,175.213 428.596,179.667 433.666 C 183.053 437.521,199.238 454.399,199.552 454.403 C 199.688 454.404,201.698 452.469,204.017 450.103 C 215.333 438.559,224.269 430.131,226.200 429.182 L 228.200 428.200 267.600 428.065 C 293.487 427.976,312.468 428.102,322.944 428.432 C 361.894 429.661,372.835 423.333,375.564 398.000 C 376.032 393.655,376.231 32.327,375.767 30.000 C 375.613 29.230,375.326 28.285,375.130 27.900 C 374.790 27.235,366.095 27.200,201.010 27.200 L 27.249 27.200 27.006 28.900 M292.304 37.591 C 295.702 39.134,296.612 39.224,298.053 38.161 C 301.080 35.928,303.977 37.162,303.210 40.359 C 301.916 45.752,297.318 47.285,290.650 44.546 C 288.438 43.638,287.826 43.525,287.274 43.926 C 282.231 47.589,278.805 44.249,282.411 39.184 C 284.114 36.793,288.862 36.029,292.304 37.591 M72.597 47.218 C 76.971 48.320,76.946 48.283,76.431 52.903 C 75.795 58.603,75.718 58.695,72.337 57.749 C 66.196 56.032,59.438 57.208,57.312 60.365 C 53.784 65.602,54.417 79.280,58.370 83.256 C 60.760 85.660,66.724 86.385,72.172 84.933 C 76.041 83.902,75.974 83.811,76.618 90.901 L 76.864 93.601 74.932 94.434 C 66.509 98.067,54.172 96.420,48.945 90.964 C 40.723 82.383,40.648 60.218,48.813 51.968 C 53.699 47.030,63.826 45.008,72.597 47.218 M108.789 47.786 C 109.231 48.319,111.407 54.386,115.608 66.800 C 116.465 69.330,117.876 73.380,118.745 75.800 C 119.614 78.220,120.731 81.370,121.226 82.800 C 121.721 84.230,122.737 87.094,123.484 89.164 C 124.234 91.245,124.787 93.481,124.721 94.164 L 124.600 95.400 119.095 95.511 C 112.347 95.648,112.303 95.627,111.430 91.917 C 110.025 85.948,110.848 86.400,101.389 86.400 L 93.634 86.400 92.375 90.500 C 90.697 95.961,91.219 95.600,85.000 95.600 C 77.548 95.600,77.399 98.413,86.196 73.000 C 88.328 66.840,91.058 58.920,92.263 55.400 C 95.350 46.379,94.380 47.200,101.960 47.200 C 107.044 47.200,108.399 47.316,108.789 47.786 M141.901 47.700 C 142.338 48.250,145.079 54.885,146.816 59.600 C 148.254 63.505,152.740 74.636,153.537 76.277 C 154.442 78.141,154.332 78.344,159.393 65.504 C 160.845 61.821,162.282 58.131,162.586 57.304 C 164.078 53.248,166.499 47.785,166.923 47.515 C 167.744 46.994,178.580 47.140,179.120 47.680 C 179.753 48.313,179.817 93.648,179.186 94.826 C 178.586 95.947,169.471 96.013,168.972 94.900 C 168.799 94.515,168.626 91.140,168.587 87.400 C 168.547 83.660,168.480 78.260,168.438 75.400 L 168.360 70.200 167.593 71.800 C 166.894 73.258,164.735 78.647,160.302 90.000 C 158.083 95.682,158.172 95.600,154.200 95.600 C 150.453 95.600,150.181 95.426,148.884 92.200 C 148.442 91.100,147.348 88.400,146.453 86.200 C 145.557 84.000,143.988 80.040,142.965 77.400 C 140.073 69.932,140.170 70.007,139.864 75.014 C 139.719 77.385,139.600 82.770,139.600 86.982 C 139.600 92.405,139.460 94.780,139.120 95.120 C 138.462 95.778,130.338 95.778,129.680 95.120 C 129.157 94.597,128.948 47.985,129.467 47.467 C 129.985 46.949,141.474 47.164,141.901 47.700 M212.545 47.796 C 226.822 50.820,228.458 73.453,214.764 78.490 C 211.797 79.582,210.271 79.808,203.229 80.199 C 198.556 80.459,199.018 79.655,198.897 87.733 C 198.766 96.518,199.414 95.644,193.126 95.512 C 187.863 95.401,187.833 95.395,187.557 94.400 C 187.092 92.723,187.145 48.849,187.614 47.974 C 188.163 46.948,207.881 46.807,212.545 47.796 M251.903 47.700 C 252.124 47.975,253.516 51.710,254.997 56.000 C 259.286 68.429,260.620 72.263,262.582 77.800 C 263.595 80.660,264.765 84.080,265.183 85.400 C 265.600 86.720,266.412 89.060,266.987 90.600 C 267.562 92.140,267.980 93.850,267.916 94.400 L 267.800 95.400 262.055 95.511 C 255.619 95.636,255.418 95.568,254.798 93.053 C 252.992 85.734,253.976 86.333,244.005 86.486 L 236.609 86.600 235.405 90.715 C 233.933 95.743,234.180 95.586,227.727 95.594 C 221.677 95.601,221.472 95.471,222.606 92.344 C 222.953 91.385,223.479 89.790,223.773 88.800 C 224.068 87.810,225.241 84.390,226.381 81.200 C 229.624 72.124,234.700 57.438,236.266 52.600 C 238.167 46.727,237.402 47.200,245.000 47.200 C 249.721 47.200,251.612 47.337,251.903 47.700 M285.482 51.700 C 287.209 54.175,289.539 57.550,290.659 59.200 C 291.780 60.850,293.262 63.010,293.953 64.000 C 294.645 64.990,296.232 67.295,297.481 69.123 C 301.170 74.522,301.028 74.880,300.861 60.612 C 300.765 52.420,300.860 48.635,301.176 48.044 C 301.712 47.044,310.174 46.734,311.120 47.680 C 311.813 48.373,311.813 94.427,311.120 95.120 C 310.054 96.186,303.873 95.730,302.707 94.500 C 301.510 93.237,296.487 86.327,291.000 78.396 C 286.509 71.905,283.818 68.394,283.430 68.523 C 283.137 68.621,282.975 72.845,282.922 81.796 C 282.861 92.095,282.732 94.997,282.322 95.257 C 281.481 95.790,273.434 95.674,272.880 95.120 C 272.371 94.611,272.143 49.134,272.643 47.833 C 272.845 47.305,273.671 47.200,277.613 47.200 L 282.341 47.200 285.482 51.700 M345.070 47.511 C 345.540 47.810,347.048 51.503,347.635 53.790 C 347.806 54.456,348.427 56.260,349.014 57.800 C 350.095 60.632,353.148 69.329,358.707 85.412 C 362.503 96.393,362.758 95.600,355.422 95.600 C 348.638 95.600,349.037 95.855,347.593 90.600 C 346.353 86.088,347.054 86.400,338.165 86.400 C 329.361 86.400,330.220 86.024,329.032 90.400 C 328.643 91.830,328.075 93.585,327.769 94.300 L 327.213 95.600 321.855 95.600 C 314.538 95.600,314.725 96.140,318.400 85.600 C 319.513 82.410,320.962 78.180,321.622 76.200 C 322.281 74.220,322.987 72.240,323.191 71.800 C 323.394 71.360,324.369 68.570,325.358 65.600 C 326.346 62.630,327.714 58.670,328.397 56.800 C 329.081 54.930,330.010 52.230,330.462 50.800 C 330.914 49.370,331.467 47.975,331.691 47.700 C 332.145 47.142,344.222 46.972,345.070 47.511 M199.050 58.450 C 198.723 60.084,198.728 67.538,199.056 69.182 L 199.313 70.464 203.956 70.332 C 210.585 70.143,211.615 69.213,211.586 63.440 C 211.560 58.268,210.226 57.206,203.750 57.203 L 199.300 57.200 199.050 58.450 M101.081 60.866 C 95.925 77.792,95.751 76.698,103.500 76.105 C 107.254 75.817,107.235 76.506,103.800 64.806 C 101.900 58.333,101.867 58.285,101.081 60.866 M242.298 67.101 C 241.032 71.445,239.997 75.225,239.998 75.500 C 240.000 75.872,241.228 76.000,244.800 76.000 C 250.211 76.000,249.939 76.224,248.957 72.584 C 248.603 71.273,248.143 69.480,247.935 68.600 C 247.221 65.587,245.138 59.200,244.869 59.201 C 244.721 59.201,243.564 62.756,242.298 67.101 M338.000 59.371 C 338.000 59.466,337.010 62.988,335.800 67.200 C 334.590 71.412,333.600 75.090,333.600 75.374 C 333.600 76.339,341.995 76.551,342.946 75.610 C 343.227 75.332,341.073 66.782,339.138 60.500 C 338.817 59.456,338.000 58.646,338.000 59.371 M162.167 115.043 C 162.866 115.311,163.173 419.322,162.475 419.753 C 161.851 420.139,91.602 420.162,91.237 419.776 C 90.544 419.043,90.507 115.630,91.200 115.192 C 91.858 114.775,161.092 114.630,162.167 115.043 M310.571 115.429 C 311.460 116.317,311.545 418.816,310.656 419.553 C 310.260 419.882,300.547 419.977,274.756 419.902 L 239.400 419.800 239.299 267.624 C 239.219 146.147,239.300 115.384,239.699 115.130 C 240.775 114.447,309.881 114.738,310.571 115.429 " stroke="none" fill="#e10e16" fill-rule="evenodd"></path><path id="path1" d="M0.000 238.400 L 0.000 476.800 200.000 476.800 L 400.000 476.800 400.000 238.400 L 400.000 0.000 200.000 0.000 L 0.000 0.000 0.000 238.400 M312.000 9.625 C 393.010 10.267,387.192 9.890,389.200 14.637 L 390.200 17.000 390.200 49.600 C 390.200 269.255,389.900 394.563,389.361 400.000 C 387.142 422.370,378.519 434.729,360.856 440.852 C 353.493 443.405,357.446 443.261,293.000 443.334 L 234.200 443.400 230.874 444.739 C 226.550 446.480,219.951 452.128,212.719 460.278 C 199.978 474.636,200.345 474.607,189.529 462.145 C 179.710 450.832,175.164 446.494,171.351 444.800 L 168.200 443.400 107.600 443.399 C 44.281 443.398,44.354 443.399,40.937 441.681 C 40.092 441.256,38.720 440.688,37.888 440.419 C 30.857 438.145,19.561 425.832,15.854 416.400 C 12.415 407.654,12.639 422.110,12.627 207.400 C 12.617 4.322,12.528 13.829,14.447 12.042 C 16.254 10.358,15.684 10.367,130.000 10.194 C 180.930 10.116,225.840 9.892,229.800 9.695 C 240.320 9.172,253.468 9.161,312.000 9.625 M199.000 14.400 C 21.562 14.606,15.495 14.654,15.036 15.851 C 14.430 17.429,14.770 401.005,15.381 405.344 C 16.419 412.713,17.802 416.767,20.893 421.505 C 23.366 425.296,29.455 431.843,31.539 432.952 C 31.902 433.146,32.470 433.629,32.800 434.027 C 34.071 435.558,39.209 438.001,43.873 439.292 L 48.600 440.600 107.800 440.600 C 178.183 440.600,172.215 440.113,178.156 446.344 C 179.280 447.524,180.810 449.054,181.555 449.744 C 182.300 450.435,184.555 452.890,186.566 455.200 C 200.629 471.354,199.175 471.189,211.213 458.000 C 219.256 449.188,226.016 443.024,229.000 441.782 C 231.270 440.836,238.009 440.716,293.827 440.620 L 349.800 440.524 353.751 439.462 C 355.924 438.878,358.111 438.400,358.611 438.400 C 359.110 438.400,360.491 437.889,361.679 437.263 C 362.868 436.638,364.371 435.994,365.020 435.832 C 373.226 433.780,383.680 420.573,385.783 409.600 C 386.142 407.730,386.620 405.390,386.847 404.400 C 387.073 403.410,387.412 399.990,387.599 396.800 C 387.987 390.209,388.161 19.062,387.777 17.018 C 387.486 15.467,385.769 14.536,382.800 14.320 C 381.810 14.248,299.100 14.284,199.000 14.400 M375.928 26.514 C 376.163 26.796,376.546 28.191,376.781 29.614 C 377.340 33.006,377.364 390.479,376.806 396.337 C 375.103 414.215,368.132 424.410,355.400 427.644 C 346.634 429.870,340.413 430.269,324.200 429.646 C 317.802 429.400,294.034 429.192,271.200 429.181 L 229.800 429.162 227.400 430.081 C 225.339 430.870,224.265 431.736,219.800 436.203 C 216.940 439.065,212.170 443.754,209.200 446.624 C 206.230 449.493,203.031 452.687,202.092 453.721 C 200.114 455.896,198.880 456.136,197.658 454.582 C 197.217 454.023,193.250 449.825,188.842 445.253 C 184.433 440.682,180.430 436.415,179.946 435.771 C 178.231 433.490,176.580 431.919,175.000 431.065 L 173.400 430.200 130.400 430.078 C 106.485 430.010,81.808 430.137,74.800 430.365 C 49.422 431.191,40.437 429.272,34.178 421.686 C 31.853 418.867,28.800 413.624,28.800 412.449 C 28.800 412.070,28.648 411.589,28.463 411.380 C 28.093 410.962,27.071 407.144,26.328 403.400 C 25.655 400.008,25.374 27.354,26.044 26.547 C 26.700 25.757,375.273 25.724,375.928 26.514 M284.252 39.057 C 283.106 40.120,282.000 42.246,282.000 43.387 C 282.000 44.326,284.601 44.171,285.983 43.149 C 287.355 42.135,288.804 42.295,291.937 43.807 C 296.280 45.902,300.354 44.694,301.855 40.865 C 302.857 38.309,300.535 37.275,298.565 39.400 C 297.269 40.799,295.351 40.523,291.505 38.386 C 289.930 37.510,285.475 37.923,284.252 39.057 M57.600 48.372 C 46.597 51.868,41.669 63.346,44.598 78.656 C 47.148 91.984,57.620 97.990,71.800 94.257 C 75.684 93.235,75.719 93.191,75.387 89.824 C 74.975 85.648,74.890 85.555,72.105 86.221 C 58.887 89.380,53.488 84.197,54.113 68.952 C 54.597 57.173,58.938 54.290,72.691 56.614 C 74.231 56.874,74.413 56.814,74.733 55.950 C 75.371 54.222,75.607 49.704,75.082 49.270 C 73.048 47.589,61.870 47.015,57.600 48.372 M99.216 48.387 L 95.832 48.600 94.923 51.200 C 93.934 54.029,91.509 61.108,88.621 69.600 C 87.610 72.570,86.618 75.360,86.415 75.800 C 85.831 77.067,80.400 93.478,80.400 93.976 C 80.400 94.289,81.872 94.391,85.274 94.312 L 90.149 94.200 90.646 92.400 C 92.863 84.368,91.571 85.200,101.826 85.200 C 111.130 85.200,111.562 85.314,111.619 87.789 C 111.629 88.235,112.055 89.860,112.565 91.400 L 113.492 94.200 118.354 94.312 C 122.327 94.404,123.257 94.318,123.440 93.839 C 123.653 93.284,122.358 89.323,117.606 76.000 C 116.468 72.810,115.024 68.670,114.398 66.800 C 112.109 59.970,108.140 48.799,107.944 48.633 C 107.598 48.341,102.312 48.192,99.216 48.387 M131.497 48.273 L 130.393 48.454 130.497 71.327 L 130.600 94.200 134.400 94.200 L 138.200 94.200 138.305 80.745 C 138.432 64.511,138.715 63.536,141.365 70.200 C 141.977 71.740,142.629 73.360,142.814 73.800 C 142.998 74.240,144.169 77.210,145.415 80.400 C 151.339 95.564,150.613 94.403,154.176 94.394 C 157.248 94.386,157.215 94.414,158.752 90.600 C 159.462 88.840,160.201 87.040,160.394 86.600 C 160.738 85.819,163.591 78.563,166.665 70.651 C 168.041 67.111,168.842 65.909,169.432 66.498 C 169.540 66.607,169.667 72.884,169.715 80.448 L 169.800 94.200 173.540 94.316 C 178.932 94.482,178.400 97.017,178.400 71.141 L 178.400 48.780 177.411 48.404 C 176.866 48.197,175.381 48.098,174.111 48.183 C 172.840 48.269,170.846 48.353,169.680 48.369 C 167.613 48.399,167.544 48.438,166.955 49.900 C 166.622 50.725,166.109 51.940,165.815 52.600 C 165.521 53.260,162.990 59.560,160.190 66.600 C 157.390 73.640,154.897 79.528,154.650 79.686 C 153.912 80.154,153.407 79.265,151.188 73.600 C 150.025 70.630,148.922 68.029,148.737 67.820 C 148.552 67.611,148.400 67.188,148.400 66.880 C 148.400 66.573,148.137 65.754,147.816 65.060 C 146.758 62.780,141.600 49.609,141.600 49.190 C 141.600 48.286,135.044 47.691,131.497 48.273 M189.100 48.404 C 188.341 48.877,187.992 92.738,188.739 93.914 C 188.979 94.294,190.207 94.399,193.432 94.314 L 197.800 94.200 198.000 87.000 C 198.247 78.126,197.792 78.801,203.524 78.797 C 217.202 78.788,222.561 74.629,222.589 64.000 C 222.613 55.008,219.763 50.838,212.313 48.965 C 209.148 48.169,190.212 47.711,189.100 48.404 M240.308 48.313 C 238.917 48.438,238.778 48.573,238.236 50.324 C 237.916 51.356,235.915 57.240,233.788 63.400 C 231.662 69.560,229.427 76.040,228.821 77.800 C 228.216 79.560,226.778 83.700,225.625 87.000 C 224.473 90.300,223.501 93.270,223.465 93.600 C 223.410 94.103,224.166 94.200,228.156 94.200 C 233.628 94.200,233.092 94.588,234.612 89.526 C 236.002 84.895,235.338 85.166,245.017 85.292 L 253.332 85.400 253.990 86.600 C 254.351 87.260,254.977 89.060,255.381 90.600 C 256.423 94.580,256.193 94.442,261.559 94.312 C 267.364 94.172,267.261 94.554,263.971 85.400 C 262.627 81.660,261.294 77.790,261.009 76.800 C 260.724 75.810,259.914 73.470,259.210 71.600 C 258.506 69.730,256.939 65.320,255.727 61.800 C 254.515 58.280,252.978 53.825,252.310 51.900 L 251.097 48.400 249.649 48.348 C 245.706 48.207,241.648 48.192,240.308 48.313 M274.400 48.358 L 273.400 48.636 273.297 71.310 L 273.193 93.983 274.098 94.210 C 274.596 94.335,276.442 94.384,278.201 94.319 L 281.400 94.200 281.613 79.800 C 281.730 71.880,281.865 65.355,281.913 65.300 C 282.426 64.713,283.577 65.779,285.585 68.700 C 286.908 70.625,288.710 73.190,289.590 74.400 C 290.469 75.610,292.005 77.770,293.004 79.200 C 294.002 80.630,295.982 83.420,297.403 85.400 C 298.824 87.380,300.691 89.997,301.551 91.216 C 303.793 94.391,303.908 94.453,307.263 94.318 L 310.200 94.200 310.303 71.319 L 310.407 48.437 308.964 48.167 C 306.930 47.785,302.756 48.227,302.349 48.867 C 302.163 49.160,302.064 55.070,302.129 62.000 C 302.281 78.129,302.226 78.325,298.902 73.346 C 298.628 72.936,296.849 70.350,294.950 67.600 C 293.051 64.850,290.845 61.625,290.048 60.433 C 289.252 59.241,288.150 57.642,287.600 56.880 C 287.050 56.118,286.150 54.823,285.600 54.002 C 282.097 48.774,281.829 48.477,280.404 48.241 C 278.607 47.944,275.685 48.001,274.400 48.358 M333.741 48.322 C 332.976 48.397,332.404 48.711,332.283 49.122 C 332.174 49.495,331.067 52.680,329.822 56.200 C 328.578 59.720,327.038 64.130,326.400 66.000 C 324.054 72.881,321.595 79.961,319.385 86.200 C 318.139 89.720,317.025 93.011,316.910 93.513 L 316.702 94.425 321.635 94.313 L 326.568 94.200 327.059 92.800 C 327.329 92.030,327.932 90.110,328.398 88.534 C 329.443 84.999,328.830 85.200,338.584 85.200 C 347.717 85.200,347.081 84.975,348.183 88.600 C 350.078 94.834,349.550 94.400,355.249 94.400 C 361.117 94.400,361.098 94.647,356.175 81.800 C 355.585 80.260,354.869 78.190,354.583 77.200 C 354.298 76.210,353.134 72.790,351.997 69.600 C 350.860 66.410,349.687 63.080,349.392 62.200 C 347.308 55.996,344.700 48.940,344.369 48.609 C 344.003 48.243,336.616 48.043,333.741 48.322 M103.813 60.400 C 104.088 61.610,104.781 64.220,105.354 66.200 C 108.933 78.579,109.227 77.741,101.386 77.532 C 94.783 77.356,94.850 77.461,96.923 70.600 C 97.255 69.500,97.925 67.250,98.411 65.600 C 101.840 53.961,102.260 53.557,103.813 60.400 M246.962 60.600 C 247.523 62.800,248.275 65.590,248.633 66.800 C 250.320 72.506,251.178 76.582,250.776 76.985 C 250.236 77.526,241.767 77.772,239.981 77.299 C 238.303 76.853,238.305 76.577,240.040 70.698 C 240.705 68.444,241.877 64.358,242.644 61.618 C 244.747 54.108,245.274 53.983,246.962 60.600 M208.643 56.452 C 214.780 57.998,214.339 70.213,208.109 71.238 C 205.055 71.741,199.027 71.667,198.480 71.120 C 197.805 70.445,197.805 57.155,198.480 56.480 C 199.102 55.858,206.205 55.839,208.643 56.452 M340.170 59.900 C 340.776 62.045,341.526 64.526,341.836 65.413 C 342.146 66.301,342.400 67.330,342.400 67.701 C 342.400 68.072,342.850 69.754,343.400 71.439 C 344.736 75.531,344.716 76.698,343.300 77.244 C 341.846 77.805,332.995 77.555,332.376 76.936 C 331.929 76.489,333.726 69.314,336.041 62.298 C 336.458 61.033,336.800 59.722,336.800 59.386 C 336.800 58.272,337.950 56.000,338.513 56.000 C 338.872 56.000,339.456 57.374,340.170 59.900 M91.849 126.500 C 91.716 132.275,91.741 200.450,91.904 278.000 L 92.200 419.000 126.649 419.102 C 153.929 419.183,161.171 419.100,161.449 418.702 C 161.649 418.416,161.757 353.249,161.699 267.100 L 161.598 116.000 126.844 116.000 L 92.091 116.000 91.849 126.500 M240.243 116.633 C 239.735 117.956,239.971 418.211,240.480 418.720 C 241.311 419.551,309.438 419.400,309.757 418.567 C 310.074 417.743,310.064 118.081,309.748 116.900 L 309.507 116.000 274.996 116.000 C 243.896 116.000,240.462 116.063,240.243 116.633 " stroke="none" fill="#fbfafa" fill-rule="evenodd"></path><path id="path2" d="M221.400 11.628 C 215.240 11.785,172.490 11.924,126.400 11.936 C 46.786 11.959,20.766 12.166,19.029 12.792 C 18.604 12.945,23.014 13.194,28.829 13.345 C 46.078 13.792,386.000 13.631,386.000 13.176 C 386.000 12.958,385.574 12.618,385.052 12.420 C 383.142 11.694,245.067 11.025,221.400 11.628 M26.900 26.665 C 26.282 26.914,26.176 394.901,26.792 401.200 C 28.076 414.323,34.661 424.521,43.800 427.541 C 50.825 429.862,47.099 429.748,112.600 429.630 C 181.397 429.506,174.749 429.123,178.600 433.431 C 182.173 437.427,199.272 455.200,199.545 455.200 C 199.674 455.200,201.862 453.085,204.406 450.500 C 218.179 436.508,224.241 430.828,226.518 429.786 L 228.792 428.745 276.496 428.872 C 350.320 429.070,346.295 429.114,351.200 428.054 C 363.565 425.381,371.080 418.797,374.316 407.800 C 376.480 400.446,376.358 411.791,376.405 213.200 C 376.449 29.291,376.437 27.578,375.107 26.734 C 374.568 26.392,27.748 26.323,26.900 26.665 M375.130 27.900 C 375.326 28.285,375.613 29.230,375.767 30.000 C 376.231 32.327,376.032 393.655,375.564 398.000 C 373.760 414.745,367.196 423.218,353.095 427.004 C 346.744 428.709,340.737 428.993,322.944 428.432 C 312.468 428.102,293.487 427.976,267.600 428.065 L 228.200 428.200 226.200 429.182 C 224.269 430.131,215.333 438.559,204.017 450.103 C 201.698 452.469,199.688 454.404,199.552 454.403 C 199.238 454.399,183.053 437.521,179.667 433.666 C 175.213 428.596,183.104 429.131,113.858 429.203 C 75.031 429.244,53.022 429.124,51.600 428.864 C 37.068 426.206,30.897 419.880,27.735 404.400 C 27.033 400.961,26.319 33.695,27.006 28.900 L 27.249 27.200 201.010 27.200 C 366.095 27.200,374.790 27.235,375.130 27.900 M284.487 37.465 C 282.342 38.523,280.232 42.742,280.933 44.571 C 281.479 45.993,284.909 45.644,287.274 43.926 C 287.826 43.525,288.438 43.638,290.650 44.546 C 297.318 47.285,301.916 45.752,303.210 40.359 C 303.977 37.162,301.080 35.928,298.053 38.161 C 296.612 39.224,295.702 39.134,292.304 37.591 C 290.172 36.623,286.321 36.561,284.487 37.465 M292.864 38.400 C 296.175 39.809,297.216 39.887,298.200 38.800 C 299.504 37.359,302.800 37.657,302.800 39.216 C 302.800 44.350,297.663 46.834,291.983 44.447 C 288.513 42.989,287.493 42.912,286.109 44.000 C 284.940 44.919,281.630 45.137,281.556 44.300 C 281.037 38.439,286.390 35.645,292.864 38.400 M58.000 47.033 C 48.007 49.669,43.531 56.263,42.925 69.236 C 42.473 78.937,44.527 86.353,48.945 90.964 C 54.172 96.420,66.509 98.067,74.932 94.434 L 76.864 93.601 76.618 90.901 C 75.974 83.811,76.041 83.902,72.172 84.933 C 66.724 86.385,60.760 85.660,58.370 83.256 C 54.417 79.280,53.784 65.602,57.312 60.365 C 59.438 57.208,66.196 56.032,72.337 57.749 C 75.718 58.695,75.795 58.603,76.431 52.903 C 76.946 48.283,76.971 48.320,72.597 47.218 C 68.707 46.238,61.367 46.145,58.000 47.033 M73.000 47.860 L 75.800 48.600 75.679 52.600 C 75.520 57.831,75.515 57.836,70.961 56.977 C 60.335 54.973,55.700 57.904,54.718 67.250 C 53.097 82.674,59.358 89.108,72.486 85.510 C 75.315 84.735,75.369 84.792,75.911 89.160 C 76.484 93.769,76.549 93.684,71.416 94.992 C 57.688 98.491,46.786 92.332,44.171 79.600 C 39.476 56.739,52.467 42.436,73.000 47.860 M95.036 48.100 C 94.716 48.595,93.468 51.880,92.263 55.400 C 91.058 58.920,88.328 66.840,86.196 73.000 C 77.399 98.413,77.548 95.600,85.000 95.600 C 91.219 95.600,90.697 95.961,92.375 90.500 L 93.634 86.400 101.389 86.400 C 110.848 86.400,110.025 85.948,111.430 91.917 C 112.303 95.627,112.347 95.648,119.095 95.511 L 124.600 95.400 124.721 94.164 C 124.787 93.481,124.234 91.245,123.484 89.164 C 122.737 87.094,121.721 84.230,121.226 82.800 C 120.731 81.370,119.614 78.220,118.745 75.800 C 117.876 73.380,116.465 69.330,115.608 66.800 C 111.407 54.386,109.231 48.319,108.789 47.786 C 107.868 46.677,95.778 46.953,95.036 48.100 M129.467 47.467 C 128.948 47.985,129.157 94.597,129.680 95.120 C 130.338 95.778,138.462 95.778,139.120 95.120 C 139.460 94.780,139.600 92.405,139.600 86.982 C 139.600 82.770,139.719 77.385,139.864 75.014 C 140.170 70.007,140.073 69.932,142.965 77.400 C 143.988 80.040,145.557 84.000,146.453 86.200 C 147.348 88.400,148.442 91.100,148.884 92.200 C 150.181 95.426,150.453 95.600,154.200 95.600 C 158.172 95.600,158.083 95.682,160.302 90.000 C 164.735 78.647,166.894 73.258,167.593 71.800 L 168.360 70.200 168.438 75.400 C 168.480 78.260,168.547 83.660,168.587 87.400 C 168.626 91.140,168.799 94.515,168.972 94.900 C 169.471 96.013,178.586 95.947,179.186 94.826 C 179.817 93.648,179.753 48.313,179.120 47.680 C 178.580 47.140,167.744 46.994,166.923 47.515 C 166.499 47.785,164.078 53.248,162.586 57.304 C 162.282 58.131,160.845 61.821,159.393 65.504 C 154.332 78.344,154.442 78.141,153.537 76.277 C 152.740 74.636,148.254 63.505,146.816 59.600 C 145.079 54.885,142.338 48.250,141.901 47.700 C 141.474 47.164,129.985 46.949,129.467 47.467 M187.614 47.974 C 187.145 48.849,187.092 92.723,187.557 94.400 C 187.833 95.395,187.863 95.401,193.126 95.512 C 199.414 95.644,198.766 96.518,198.897 87.733 C 199.018 79.655,198.556 80.459,203.229 80.199 C 210.271 79.808,211.797 79.582,214.764 78.490 C 228.458 73.453,226.822 50.820,212.545 47.796 C 207.881 46.807,188.163 46.948,187.614 47.974 M238.094 47.700 C 237.872 47.975,237.049 50.180,236.266 52.600 C 234.700 57.438,229.624 72.124,226.381 81.200 C 225.241 84.390,224.068 87.810,223.773 88.800 C 223.479 89.790,222.953 91.385,222.606 92.344 C 221.472 95.471,221.677 95.601,227.727 95.594 C 234.180 95.586,233.933 95.743,235.405 90.715 L 236.609 86.600 244.005 86.486 C 253.976 86.333,252.992 85.734,254.798 93.053 C 255.418 95.568,255.619 95.636,262.055 95.511 L 267.800 95.400 267.916 94.400 C 267.980 93.850,267.562 92.140,266.987 90.600 C 266.412 89.060,265.600 86.720,265.183 85.400 C 264.765 84.080,263.595 80.660,262.582 77.800 C 260.620 72.263,259.286 68.429,254.997 56.000 C 251.612 46.193,252.756 47.200,245.000 47.200 C 240.280 47.200,238.387 47.337,238.094 47.700 M272.643 47.833 C 272.143 49.134,272.371 94.611,272.880 95.120 C 273.434 95.674,281.481 95.790,282.322 95.257 C 282.732 94.997,282.861 92.095,282.922 81.796 C 282.975 72.845,283.137 68.621,283.430 68.523 C 283.818 68.394,286.509 71.905,291.000 78.396 C 296.487 86.327,301.510 93.237,302.707 94.500 C 303.873 95.730,310.054 96.186,311.120 95.120 C 311.813 94.427,311.813 48.373,311.120 47.680 C 310.174 46.734,301.712 47.044,301.176 48.044 C 300.860 48.635,300.765 52.420,300.861 60.612 C 301.028 74.880,301.170 74.522,297.481 69.123 C 296.232 67.295,294.645 64.990,293.953 64.000 C 293.262 63.010,291.780 60.850,290.659 59.200 C 289.539 57.550,287.209 54.175,285.482 51.700 L 282.341 47.200 277.613 47.200 C 273.671 47.200,272.845 47.305,272.643 47.833 M331.691 47.700 C 331.467 47.975,330.914 49.370,330.462 50.800 C 330.010 52.230,329.081 54.930,328.397 56.800 C 327.714 58.670,326.346 62.630,325.358 65.600 C 324.369 68.570,323.394 71.360,323.191 71.800 C 322.987 72.240,322.281 74.220,321.622 76.200 C 320.962 78.180,319.513 82.410,318.400 85.600 C 314.725 96.140,314.538 95.600,321.855 95.600 L 327.213 95.600 327.769 94.300 C 328.075 93.585,328.643 91.830,329.032 90.400 C 330.220 86.024,329.361 86.400,338.165 86.400 C 347.054 86.400,346.353 86.088,347.593 90.600 C 349.037 95.855,348.638 95.600,355.422 95.600 C 362.758 95.600,362.503 96.393,358.707 85.412 C 353.148 69.329,350.095 60.632,349.014 57.800 C 348.427 56.260,347.806 54.456,347.635 53.790 C 347.048 51.503,345.540 47.810,345.070 47.511 C 344.222 46.972,332.145 47.142,331.691 47.700 M108.274 48.100 C 108.694 48.666,110.667 53.916,112.144 58.400 C 112.687 60.050,114.058 64.010,115.191 67.200 C 118.284 75.918,119.935 80.634,121.209 84.400 C 121.841 86.270,122.818 89.023,123.379 90.518 C 125.123 95.163,125.093 95.189,118.200 95.188 C 112.731 95.188,112.959 95.356,111.628 90.356 L 110.520 86.200 108.360 85.976 C 107.172 85.852,103.500 85.806,100.200 85.873 C 96.900 85.939,93.988 85.995,93.728 85.997 C 93.469 85.999,92.679 87.845,91.973 90.100 C 90.352 95.277,90.455 95.201,85.024 95.194 C 78.433 95.185,78.377 97.252,85.533 76.600 C 87.287 71.540,90.172 63.197,91.945 58.060 C 93.718 52.923,95.378 48.468,95.633 48.160 C 96.267 47.396,107.710 47.342,108.274 48.100 M141.856 48.800 C 142.392 49.905,144.019 53.889,146.183 59.400 C 151.098 71.913,153.883 78.561,154.263 78.688 C 154.510 78.770,156.639 73.926,159.172 67.517 C 161.632 61.292,164.244 54.760,164.977 53.000 C 165.710 51.240,166.433 49.395,166.582 48.901 C 166.947 47.691,167.763 47.549,173.600 47.684 L 178.600 47.800 178.703 71.174 C 178.785 89.609,178.700 94.616,178.303 94.868 C 177.716 95.241,170.763 95.314,169.833 94.957 C 169.273 94.742,169.200 93.165,169.200 81.324 C 169.200 71.494,169.079 67.974,168.745 68.085 C 168.495 68.168,165.955 74.136,163.100 81.345 C 157.339 95.899,157.807 95.200,153.818 95.200 C 150.664 95.200,150.512 94.968,145.803 83.000 C 143.466 77.060,141.250 71.436,140.877 70.501 C 139.394 66.782,139.200 68.066,139.200 81.586 C 139.200 93.818,139.166 94.390,138.426 94.786 C 137.447 95.310,131.986 95.327,130.626 94.810 L 129.600 94.420 129.600 71.490 C 129.600 53.911,129.715 48.445,130.091 48.069 C 131.157 47.003,141.289 47.633,141.856 48.800 M213.569 48.575 C 220.288 50.734,223.217 55.276,223.257 63.600 C 223.310 74.842,217.242 79.612,202.900 79.603 C 200.645 79.601,198.773 79.645,198.740 79.700 C 198.706 79.755,198.571 83.220,198.440 87.400 L 198.200 95.000 193.657 95.114 C 190.650 95.189,188.926 95.071,188.557 94.765 C 187.943 94.255,187.692 48.445,188.300 47.829 C 188.948 47.173,211.253 47.831,213.569 48.575 M251.472 48.100 C 251.787 48.592,252.548 50.709,256.397 61.800 C 257.466 64.880,259.451 70.550,260.808 74.400 C 265.708 88.308,267.702 94.432,267.420 94.713 C 267.262 94.871,264.712 95.000,261.752 95.000 C 255.794 95.000,255.924 95.055,255.186 92.200 C 254.959 91.320,254.464 89.610,254.086 88.400 L 253.400 86.200 244.893 86.092 L 236.386 85.984 235.965 87.092 C 235.733 87.701,235.180 89.550,234.736 91.200 C 233.683 95.114,233.546 95.200,228.356 95.200 C 221.409 95.200,221.447 96.950,227.992 78.400 C 229.118 75.210,230.554 71.070,231.183 69.200 C 233.780 61.482,238.360 48.389,238.595 48.009 C 238.983 47.380,251.067 47.466,251.472 48.100 M283.955 50.500 C 285.060 52.095,286.526 54.210,287.214 55.200 C 287.902 56.190,290.504 59.970,292.997 63.600 C 300.128 73.983,300.836 74.924,301.227 74.533 C 301.426 74.334,301.636 68.238,301.694 60.986 L 301.800 47.800 305.942 47.686 C 308.652 47.611,310.276 47.731,310.642 48.035 C 311.307 48.587,311.477 93.343,310.817 94.386 C 309.575 96.350,303.759 95.167,301.818 92.555 C 300.052 90.178,296.091 84.665,293.659 81.200 C 286.888 71.553,283.097 66.400,282.771 66.400 C 282.550 66.400,282.400 72.064,282.400 80.386 C 282.400 96.648,282.883 95.200,277.455 95.200 C 272.322 95.200,272.800 97.646,272.800 71.404 C 272.800 59.008,272.909 48.581,273.043 48.233 C 273.244 47.710,274.036 47.600,277.616 47.600 L 281.945 47.600 283.955 50.500 M344.669 47.911 C 344.927 48.075,347.678 55.497,350.781 64.405 C 353.884 73.312,356.940 82.040,357.573 83.800 C 360.533 92.035,361.294 94.439,361.025 94.709 C 360.865 94.869,358.439 95.062,355.634 95.138 C 349.473 95.306,349.719 95.472,348.021 90.004 L 346.777 86.000 338.237 86.000 L 329.697 86.000 328.587 89.976 C 327.088 95.343,327.512 94.978,322.590 95.137 C 315.039 95.381,315.211 96.482,320.446 81.432 C 329.601 55.109,330.905 51.338,331.316 50.000 C 332.059 47.578,331.996 47.599,338.349 47.606 C 341.567 47.609,344.411 47.747,344.669 47.911 M198.909 57.045 C 198.538 57.952,198.491 70.224,198.857 70.590 C 199.587 71.320,208.391 70.871,209.744 70.035 C 213.312 67.830,213.148 59.235,209.503 57.350 C 207.420 56.273,199.320 56.039,198.909 57.045 M101.385 57.700 C 101.122 58.396,98.111 68.755,97.101 72.440 C 95.886 76.878,95.799 76.800,101.987 76.800 L 107.200 76.800 107.196 75.700 C 107.194 75.095,106.321 71.540,105.257 67.800 C 104.193 64.060,103.092 60.145,102.809 59.100 C 102.306 57.239,101.763 56.704,101.385 57.700 M209.373 57.979 C 211.101 59.117,211.570 60.276,211.586 63.440 C 211.615 69.213,210.585 70.143,203.956 70.332 L 199.313 70.464 199.056 69.182 C 198.728 67.538,198.723 60.084,199.050 58.450 L 199.300 57.200 203.750 57.203 C 207.475 57.205,208.391 57.331,209.373 57.979 M244.395 58.100 C 243.182 60.914,239.242 75.554,239.496 76.300 C 239.750 77.045,249.945 77.010,250.231 76.263 C 250.445 75.706,249.709 72.715,247.406 64.773 C 246.668 62.228,245.939 59.483,245.787 58.673 C 245.473 56.997,244.961 56.786,244.395 58.100 M335.428 66.424 C 333.945 71.497,332.832 75.907,332.954 76.224 C 333.280 77.075,343.411 77.070,343.738 76.218 C 343.931 75.715,342.319 69.432,339.550 59.900 C 338.451 56.116,338.429 56.151,335.428 66.424 M103.800 64.806 C 107.235 76.506,107.254 75.817,103.500 76.105 C 96.354 76.652,96.314 76.585,98.837 68.260 C 102.256 56.978,101.630 57.413,103.800 64.806 M246.347 63.100 C 247.012 65.245,247.726 67.720,247.935 68.600 C 248.143 69.480,248.603 71.273,248.957 72.584 C 249.939 76.224,250.211 76.000,244.800 76.000 C 241.228 76.000,240.000 75.872,239.998 75.500 C 239.995 74.593,244.594 59.201,244.869 59.201 C 245.017 59.200,245.682 60.955,246.347 63.100 M339.138 60.500 C 341.073 66.782,343.227 75.332,342.946 75.610 C 341.995 76.551,333.600 76.339,333.600 75.374 C 333.600 75.090,334.590 71.412,335.800 67.200 C 337.010 62.988,338.000 59.466,338.000 59.371 C 338.000 58.646,338.817 59.456,339.138 60.500 M91.200 115.192 C 90.507 115.630,90.544 419.043,91.237 419.776 C 91.602 420.162,161.851 420.139,162.475 419.753 C 163.173 419.322,162.866 115.311,162.167 115.043 C 161.092 114.630,91.858 114.775,91.200 115.192 M239.699 115.130 C 239.300 115.384,239.219 146.147,239.299 267.624 L 239.400 419.800 274.756 419.902 C 300.547 419.977,310.260 419.882,310.656 419.553 C 311.545 418.816,311.460 116.317,310.571 115.429 C 309.881 114.738,240.775 114.447,239.699 115.130 M161.726 115.700 C 162.362 116.169,162.398 125.621,162.302 267.800 L 162.200 419.400 126.900 419.502 C 107.485 419.558,91.599 419.468,91.598 419.302 C 91.011 303.642,91.030 116.487,91.629 115.766 C 92.284 114.976,160.656 114.912,161.726 115.700 M309.501 115.452 L 310.401 115.694 310.301 267.547 L 310.200 419.400 275.000 419.400 L 239.800 419.400 239.698 267.800 C 239.602 125.621,239.638 116.169,240.274 115.700 C 240.989 115.174,307.572 114.935,309.501 115.452 " stroke="none" fill="#ca6f71" fill-rule="evenodd"></path><path id="path3" d="M222.800 10.822 C 217.850 11.005,175.910 11.174,129.600 11.198 C 19.480 11.254,14.400 11.363,14.400 13.662 C 14.400 13.848,19.665 13.971,26.100 13.937 C 34.512 13.891,36.788 13.791,34.200 13.579 C 32.220 13.417,27.810 13.254,24.400 13.217 C 20.863 13.178,18.544 13.013,19.000 12.832 C 20.692 12.161,45.417 11.961,123.800 11.986 C 172.738 12.001,212.708 11.834,224.400 11.564 C 246.700 11.049,383.349 11.772,385.037 12.414 C 386.812 13.089,386.027 13.400,382.701 13.341 L 379.400 13.281 382.613 13.580 C 386.067 13.901,387.345 14.377,387.991 15.583 C 388.267 16.100,388.422 67.396,388.468 173.874 C 388.510 270.042,388.664 325.479,388.864 316.200 C 389.250 298.275,389.903 27.441,389.576 20.969 C 389.314 15.804,388.271 13.034,386.200 12.002 C 384.302 11.057,243.919 10.044,222.800 10.822 M153.100 13.882 C 153.595 13.978,154.405 13.978,154.900 13.882 C 155.395 13.787,154.990 13.709,154.000 13.709 C 153.010 13.709,152.605 13.787,153.100 13.882 M158.512 13.895 C 159.564 13.977,161.184 13.976,162.112 13.892 C 163.040 13.808,162.180 13.741,160.200 13.742 C 158.220 13.743,157.460 13.812,158.512 13.895 M361.907 13.890 C 362.626 13.979,363.706 13.977,364.307 13.886 C 364.908 13.795,364.320 13.722,363.000 13.724 C 361.680 13.726,361.188 13.801,361.907 13.890 M372.512 13.895 C 373.564 13.977,375.184 13.976,376.112 13.892 C 377.040 13.808,376.180 13.741,374.200 13.742 C 372.220 13.743,371.460 13.812,372.512 13.895 M13.491 17.066 C 13.117 19.561,13.021 384.167,13.391 396.400 C 13.750 408.292,14.887 413.685,18.409 420.200 C 22.852 428.421,33.467 438.671,38.691 439.784 C 39.401 439.936,40.841 440.495,41.891 441.028 C 43.346 441.767,44.418 441.993,46.400 441.980 L 49.000 441.963 44.646 440.814 C 31.854 437.438,19.839 425.443,15.985 412.200 C 14.163 405.937,14.272 417.302,14.029 209.600 C 13.903 102.570,13.661 15.930,13.491 17.066 M26.198 211.000 C 26.198 312.200,26.244 353.540,26.300 302.867 C 26.356 252.194,26.356 169.394,26.300 118.867 C 26.244 68.340,26.198 109.800,26.198 211.000 M376.928 42.400 C 376.928 43.830,377.001 44.415,377.089 43.700 C 377.178 42.985,377.178 41.815,377.089 41.100 C 377.001 40.385,376.928 40.970,376.928 42.400 M295.100 45.482 C 295.595 45.578,296.405 45.578,296.900 45.482 C 297.395 45.387,296.990 45.309,296.000 45.309 C 295.010 45.309,294.605 45.387,295.100 45.482 M272.985 67.400 C 272.985 77.960,273.037 82.223,273.100 76.872 C 273.163 71.522,273.163 62.882,273.100 57.672 C 273.036 52.463,272.985 56.840,272.985 67.400 M310.987 71.200 C 310.987 83.850,311.038 89.025,311.100 82.700 C 311.162 76.375,311.162 66.025,311.100 59.700 C 311.038 53.375,310.987 58.550,310.987 71.200 M129.777 64.200 C 129.777 70.800,129.832 73.556,129.899 70.325 C 129.966 67.093,129.966 61.693,129.899 58.325 C 129.832 54.956,129.777 57.600,129.777 64.200 M376.598 223.800 C 376.598 316.200,376.644 354.060,376.700 307.933 C 376.756 261.806,376.756 186.206,376.700 139.933 C 376.644 93.660,376.598 131.400,376.598 223.800 M244.414 57.174 C 243.787 58.346,243.914 58.486,244.800 57.600 C 245.685 56.715,245.794 56.400,245.214 56.400 C 245.002 56.400,244.642 56.748,244.414 57.174 M282.165 66.548 C 282.049 66.849,282.021 68.064,282.103 69.248 L 282.252 71.400 282.326 68.900 C 282.402 66.348,282.612 66.018,283.601 66.900 C 284.078 67.325,284.082 67.296,283.632 66.700 C 282.996 65.860,282.450 65.803,282.165 66.548 M139.200 68.200 C 139.200 68.530,139.492 68.800,139.849 68.800 C 140.380 68.800,140.408 68.691,140.000 68.200 C 139.726 67.870,139.434 67.600,139.351 67.600 C 139.268 67.600,139.200 67.870,139.200 68.200 M43.324 71.000 C 43.326 72.320,43.401 72.812,43.490 72.093 C 43.579 71.374,43.577 70.294,43.486 69.693 C 43.395 69.092,43.322 69.680,43.324 71.000 M199.900 71.089 C 200.615 71.178,201.785 71.178,202.500 71.089 C 203.215 71.001,202.630 70.928,201.200 70.928 C 199.770 70.928,199.185 71.001,199.900 71.089 M138.893 74.800 C 138.893 75.570,138.975 75.885,139.076 75.500 C 139.176 75.115,139.176 74.485,139.076 74.100 C 138.975 73.715,138.893 74.030,138.893 74.800 M300.596 74.684 C 301.097 75.255,301.276 75.277,301.697 74.824 C 302.107 74.382,302.080 74.324,301.549 74.510 C 301.191 74.635,300.695 74.572,300.447 74.370 C 300.200 74.168,300.267 74.309,300.596 74.684 M96.000 75.800 C 96.000 76.350,96.155 76.800,96.345 76.800 C 96.534 76.800,96.603 76.350,96.498 75.800 C 96.393 75.250,96.238 74.800,96.153 74.800 C 96.069 74.800,96.000 75.250,96.000 75.800 M206.305 79.483 C 206.802 79.579,207.522 79.575,207.905 79.475 C 208.287 79.375,207.880 79.296,207.000 79.301 C 206.120 79.305,205.807 79.387,206.305 79.483 M96.100 85.891 C 96.925 85.978,98.275 85.978,99.100 85.891 C 99.925 85.805,99.250 85.734,97.600 85.734 C 95.950 85.734,95.275 85.805,96.100 85.891 M107.500 85.882 C 107.995 85.978,108.805 85.978,109.300 85.882 C 109.795 85.787,109.390 85.709,108.400 85.709 C 107.410 85.709,107.005 85.787,107.500 85.882 M240.700 85.898 C 242.955 85.970,246.645 85.970,248.900 85.898 C 251.155 85.827,249.310 85.769,244.800 85.769 C 240.290 85.769,238.445 85.827,240.700 85.898 M334.122 85.899 C 336.499 85.970,340.279 85.969,342.522 85.898 C 344.765 85.827,342.820 85.769,338.200 85.769 C 333.580 85.770,331.745 85.828,334.122 85.899 M272.901 89.400 C 272.905 90.280,272.987 90.593,273.083 90.095 C 273.179 89.598,273.175 88.878,273.075 88.495 C 272.975 88.113,272.896 88.520,272.901 89.400 M272.901 92.600 C 272.905 93.480,272.987 93.793,273.083 93.295 C 273.179 92.798,273.175 92.078,273.075 91.695 C 272.975 91.313,272.896 91.720,272.901 92.600 M138.893 93.200 C 138.893 93.970,138.975 94.285,139.076 93.900 C 139.176 93.515,139.176 92.885,139.076 92.500 C 138.975 92.115,138.893 92.430,138.893 93.200 M82.716 95.097 C 84.099 95.175,86.259 95.174,87.516 95.095 C 88.772 95.016,87.640 94.952,85.000 94.953 C 82.360 94.953,81.332 95.018,82.716 95.097 M115.900 95.096 C 117.275 95.174,119.525 95.174,120.900 95.096 C 122.275 95.018,121.150 94.954,118.400 94.954 C 115.650 94.954,114.525 95.018,115.900 95.096 M132.912 95.095 C 133.964 95.177,135.584 95.176,136.512 95.092 C 137.440 95.008,136.580 94.941,134.600 94.942 C 132.620 94.943,131.860 95.012,132.912 95.095 M152.700 95.089 C 153.415 95.178,154.585 95.178,155.300 95.089 C 156.015 95.001,155.430 94.928,154.000 94.928 C 152.570 94.928,151.985 95.001,152.700 95.089 M171.900 95.095 C 173.055 95.176,174.945 95.176,176.100 95.095 C 177.255 95.014,176.310 94.948,174.000 94.948 C 171.690 94.948,170.745 95.014,171.900 95.095 M191.116 95.097 C 192.499 95.175,194.659 95.174,195.916 95.095 C 197.172 95.016,196.040 94.952,193.400 94.953 C 190.760 94.953,189.732 95.018,191.116 95.097 M225.916 95.097 C 227.299 95.175,229.459 95.174,230.716 95.095 C 231.972 95.016,230.840 94.952,228.200 94.953 C 225.560 94.953,224.532 95.018,225.916 95.097 M259.715 95.096 C 260.988 95.176,262.968 95.175,264.115 95.094 C 265.262 95.014,264.220 94.949,261.800 94.950 C 259.380 94.951,258.442 95.016,259.715 95.096 M275.700 95.094 C 276.745 95.176,278.455 95.176,279.500 95.094 C 280.545 95.012,279.690 94.944,277.600 94.944 C 275.510 94.944,274.655 95.012,275.700 95.094 M305.900 95.089 C 306.615 95.178,307.785 95.178,308.500 95.089 C 309.215 95.001,308.630 94.928,307.200 94.928 C 305.770 94.928,305.185 95.001,305.900 95.089 M319.300 95.096 C 320.565 95.175,322.635 95.175,323.900 95.096 C 325.165 95.016,324.130 94.951,321.600 94.951 C 319.070 94.951,318.035 95.016,319.300 95.096 M352.716 95.097 C 354.099 95.175,356.259 95.174,357.516 95.095 C 358.772 95.016,357.640 94.952,355.000 94.953 C 352.360 94.953,351.332 95.018,352.716 95.097 M109.330 115.500 C 118.972 115.560,134.632 115.560,144.130 115.500 C 153.629 115.440,145.740 115.391,126.600 115.391 C 107.460 115.391,99.689 115.440,109.330 115.500 M257.930 115.500 C 267.462 115.560,282.942 115.560,292.330 115.500 C 301.719 115.440,293.920 115.391,275.000 115.391 C 256.080 115.391,248.399 115.440,257.930 115.500 M91.324 118.200 C 91.326 119.520,91.401 120.012,91.490 119.293 C 91.579 118.574,91.577 117.494,91.486 116.893 C 91.395 116.292,91.322 116.880,91.324 118.200 M90.988 159.800 C 90.988 172.780,91.038 178.032,91.100 171.471 C 91.162 164.911,91.161 154.291,91.100 147.871 C 91.038 141.452,90.987 146.820,90.988 159.800 M91.372 220.800 C 91.372 225.970,91.429 228.085,91.499 225.500 C 91.568 222.915,91.568 218.685,91.499 216.100 C 91.429 213.515,91.372 215.630,91.372 220.800 M388.355 368.000 C 388.212 394.221,388.046 402.760,387.642 404.600 C 385.013 416.584,383.845 419.510,379.287 425.531 C 372.321 434.732,361.541 439.933,345.662 441.756 L 341.400 442.245 344.000 442.537 C 351.609 443.391,365.165 439.505,371.550 434.639 C 372.733 433.738,374.232 432.613,374.882 432.139 C 381.383 427.401,387.059 415.243,388.485 403.000 C 389.001 398.575,389.283 355.561,388.875 343.600 C 388.597 335.447,388.510 339.548,388.355 368.000 M91.372 409.800 C 91.372 414.860,91.429 416.875,91.499 414.277 C 91.569 411.680,91.568 407.540,91.498 405.077 C 91.428 402.615,91.371 404.740,91.372 409.800 M231.100 428.682 C 231.595 428.778,232.405 428.778,232.900 428.682 C 233.395 428.587,232.990 428.509,232.000 428.509 C 231.010 428.509,230.605 428.587,231.100 428.682 M322.305 429.083 C 322.802 429.179,323.522 429.175,323.905 429.075 C 324.287 428.975,323.880 428.896,323.000 428.901 C 322.120 428.905,321.807 428.987,322.305 429.083 M332.900 429.497 C 334.605 429.572,337.395 429.572,339.100 429.497 C 340.805 429.422,339.410 429.361,336.000 429.361 C 332.590 429.361,331.195 429.422,332.900 429.497 M76.100 429.876 C 76.485 429.976,77.115 429.976,77.500 429.876 C 77.885 429.775,77.570 429.693,76.800 429.693 C 76.030 429.693,75.715 429.775,76.100 429.876 M218.181 436.900 L 216.600 438.600 218.300 437.019 C 219.881 435.548,220.184 435.200,219.881 435.200 C 219.816 435.200,219.051 435.965,218.181 436.900 M213.600 441.400 C 212.628 442.390,211.923 443.200,212.033 443.200 C 212.143 443.200,213.028 442.390,214.000 441.400 C 214.972 440.410,215.677 439.600,215.567 439.600 C 215.457 439.600,214.572 440.410,213.600 441.400 M188.200 444.000 C 189.728 445.540,191.069 446.800,191.179 446.800 C 191.289 446.800,190.128 445.540,188.600 444.000 C 187.072 442.460,185.731 441.200,185.621 441.200 C 185.511 441.200,186.672 442.460,188.200 444.000 M152.498 441.832 C 152.662 441.995,156.531 442.255,161.098 442.410 L 169.400 442.691 171.904 444.009 C 173.281 444.733,174.507 445.226,174.630 445.103 C 175.153 444.580,172.004 442.805,169.788 442.375 C 167.081 441.849,152.043 441.376,152.498 441.832 M230.143 442.382 C 227.178 443.089,221.833 447.802,212.205 458.200 C 209.353 461.280,205.665 465.089,204.010 466.665 C 201.125 469.411,200.483 470.620,202.466 469.571 C 203.601 468.970,204.683 467.886,211.817 460.200 C 223.096 448.048,228.756 443.559,233.621 442.906 C 234.480 442.791,235.087 442.540,234.968 442.348 C 234.714 441.937,231.928 441.956,230.143 442.382 M204.981 449.700 L 203.400 451.400 205.100 449.819 C 206.681 448.348,206.984 448.000,206.681 448.000 C 206.616 448.000,205.851 448.765,204.981 449.700 M196.800 453.000 C 197.995 454.210,199.063 455.200,199.173 455.200 C 199.283 455.200,198.395 454.210,197.200 453.000 C 196.005 451.790,194.937 450.800,194.827 450.800 C 194.717 450.800,195.605 451.790,196.800 453.000 M181.600 451.889 C 181.600 452.392,182.743 453.390,183.012 453.121 C 183.118 453.015,182.844 452.602,182.402 452.202 C 181.961 451.803,181.600 451.662,181.600 451.889 M184.000 454.348 C 184.000 454.745,185.096 456.000,185.443 456.000 C 185.730 456.000,184.846 454.475,184.398 454.199 C 184.179 454.063,184.000 454.131,184.000 454.348 " stroke="none" fill="#c89799" fill-rule="evenodd"></path><path id="path4" d="M229.800 9.695 C 225.840 9.892,180.930 10.116,130.000 10.194 C 15.684 10.367,16.254 10.358,14.447 12.042 C 12.528 13.829,12.617 4.322,12.627 207.400 C 12.639 422.110,12.415 407.654,15.854 416.400 C 19.561 425.832,30.857 438.145,37.888 440.419 C 38.720 440.688,40.092 441.256,40.937 441.681 C 44.354 443.399,44.281 443.398,107.600 443.399 L 168.200 443.400 171.351 444.800 C 175.164 446.494,179.710 450.832,189.529 462.145 C 200.345 474.607,199.978 474.636,212.719 460.278 C 219.951 452.128,226.550 446.480,230.874 444.739 L 234.200 443.400 293.000 443.334 C 357.446 443.261,353.493 443.405,360.856 440.852 C 378.519 434.729,387.142 422.370,389.361 400.000 C 389.900 394.563,390.200 269.255,390.200 49.600 L 390.200 17.000 389.200 14.637 C 387.495 10.606,387.650 10.655,375.277 10.326 C 345.253 9.528,242.151 9.081,229.800 9.695 M362.600 11.154 C 390.400 11.465,389.070 10.981,389.576 20.969 C 389.903 27.441,389.250 298.275,388.864 316.200 C 388.664 325.478,388.510 269.950,388.468 173.682 L 388.400 15.964 387.450 15.014 C 385.962 13.526,392.544 13.572,198.700 13.689 C 97.335 13.750,14.400 13.693,14.400 13.562 C 14.400 11.378,20.465 11.254,129.600 11.198 C 175.910 11.174,217.850 11.005,222.800 10.822 C 231.964 10.485,321.941 10.698,362.600 11.154 M386.064 15.070 C 387.218 15.558,387.580 15.970,387.777 17.018 C 388.161 19.062,387.987 390.209,387.599 396.800 C 387.412 399.990,387.073 403.410,386.847 404.400 C 386.620 405.390,386.142 407.730,385.783 409.600 C 383.680 420.573,373.226 433.780,365.020 435.832 C 364.371 435.994,362.868 436.638,361.679 437.263 C 360.491 437.889,359.110 438.400,358.611 438.400 C 358.111 438.400,355.924 438.878,353.751 439.462 L 349.800 440.524 293.827 440.620 C 238.009 440.716,231.270 440.836,229.000 441.782 C 226.016 443.024,219.256 449.188,211.213 458.000 C 199.175 471.189,200.629 471.354,186.566 455.200 C 184.555 452.890,182.300 450.435,181.555 449.744 C 180.810 449.054,179.280 447.524,178.156 446.344 C 172.215 440.113,178.183 440.600,107.800 440.600 L 48.600 440.600 43.873 439.292 C 39.209 438.001,34.071 435.558,32.800 434.027 C 32.470 433.629,31.902 433.146,31.539 432.952 C 29.455 431.843,23.366 425.296,20.893 421.505 C 17.802 416.767,16.419 412.713,15.381 405.344 C 14.770 401.005,14.430 17.429,15.036 15.851 C 15.495 14.654,21.562 14.606,199.000 14.400 C 393.186 14.175,383.868 14.141,386.064 15.070 M14.888 407.400 C 18.084 423.599,29.965 436.939,44.646 440.814 L 49.000 441.963 46.400 441.980 C 44.418 441.993,43.346 441.767,41.891 441.028 C 40.841 440.495,39.401 439.936,38.691 439.784 C 33.467 438.671,22.852 428.421,18.409 420.200 C 14.887 413.685,13.750 408.292,13.391 396.400 C 13.021 384.167,13.117 19.561,13.491 17.066 C 13.661 15.930,13.903 102.570,14.029 209.600 C 14.234 384.655,14.320 404.521,14.888 407.400 M26.044 26.547 C 25.374 27.354,25.655 400.008,26.328 403.400 C 27.071 407.144,28.093 410.962,28.463 411.380 C 28.648 411.589,28.800 412.070,28.800 412.449 C 28.800 417.796,40.502 428.830,46.136 428.795 C 46.611 428.792,45.550 428.285,43.778 427.668 C 33.528 424.099,27.647 414.102,26.430 398.177 C 25.968 392.133,25.784 28.227,26.243 27.033 C 26.532 26.280,375.328 26.036,375.793 26.788 C 375.924 27.001,376.206 28.666,376.419 30.488 C 376.798 33.735,376.994 381.364,376.623 393.400 C 376.486 397.865,376.519 398.392,376.789 396.000 C 377.310 391.378,377.302 32.777,376.781 29.614 C 376.546 28.191,376.163 26.796,375.928 26.514 C 375.273 25.724,26.700 25.757,26.044 26.547 M285.352 37.750 C 281.919 39.311,280.406 44.485,283.313 44.725 C 284.469 44.820,285.112 44.609,286.043 43.825 C 287.581 42.531,287.876 42.541,291.200 44.000 C 297.214 46.640,303.424 44.008,302.729 39.113 C 302.525 37.668,299.485 37.576,298.188 38.975 C 297.001 40.255,296.822 40.248,293.400 38.766 C 290.061 37.320,287.115 36.948,285.352 37.750 M291.505 38.386 C 295.351 40.523,297.269 40.799,298.565 39.400 C 300.535 37.275,302.857 38.309,301.855 40.865 C 300.354 44.694,296.280 45.902,291.937 43.807 C 288.804 42.295,287.355 42.135,285.983 43.149 C 284.601 44.171,282.000 44.326,282.000 43.387 C 282.000 39.449,287.865 36.363,291.505 38.386 M62.000 47.029 C 48.666 49.325,43.599 55.966,43.600 71.143 C 43.601 88.129,50.741 96.118,65.375 95.511 C 73.524 95.174,76.454 93.896,75.960 90.896 C 75.788 89.853,75.637 88.229,75.624 87.287 C 75.595 85.223,75.016 84.889,72.676 85.590 C 67.901 87.021,61.213 86.572,58.692 84.652 C 52.508 79.941,52.843 61.395,59.180 57.670 C 61.330 56.406,69.920 56.077,72.937 57.143 C 73.995 57.517,74.602 57.558,74.887 57.273 C 75.600 56.560,76.161 49.147,75.532 48.755 C 73.840 47.700,64.799 46.547,62.000 47.029 M72.142 48.236 C 75.543 49.115,75.606 49.197,75.324 52.334 C 74.942 56.576,74.709 56.955,72.691 56.614 C 58.938 54.290,54.597 57.173,54.113 68.952 C 53.488 84.197,58.887 89.380,72.105 86.221 C 74.890 85.555,74.975 85.648,75.387 89.824 C 75.719 93.191,75.684 93.235,71.800 94.257 C 65.144 96.009,56.161 94.902,51.810 91.794 C 41.772 84.622,41.029 60.946,50.559 51.925 C 54.473 48.220,65.075 46.408,72.142 48.236 M95.829 48.229 C 95.483 48.574,95.200 48.905,95.200 48.965 C 95.200 49.024,94.641 50.676,93.958 52.636 C 90.644 62.149,85.810 76.158,84.793 79.200 C 84.167 81.070,82.743 85.245,81.628 88.478 C 80.512 91.711,79.600 94.461,79.600 94.590 C 79.600 94.718,82.050 94.772,85.045 94.711 L 90.490 94.600 91.471 91.201 C 92.010 89.331,92.667 87.351,92.931 86.801 L 93.411 85.800 101.790 85.800 L 110.169 85.800 110.654 86.800 C 110.921 87.350,111.441 88.970,111.810 90.400 C 113.052 95.215,112.415 94.800,118.568 94.800 C 121.530 94.800,124.051 94.641,124.171 94.447 C 124.433 94.024,123.991 92.596,121.001 84.200 C 119.748 80.680,118.390 76.810,117.985 75.600 C 117.579 74.390,116.315 70.790,115.175 67.600 C 114.036 64.410,112.600 60.270,111.984 58.400 C 110.409 53.619,108.628 48.691,108.263 48.100 C 107.760 47.289,96.654 47.403,95.829 48.229 M130.503 47.928 C 129.987 48.255,129.402 91.298,129.881 93.700 L 130.100 94.800 134.403 94.800 L 138.707 94.800 138.988 92.178 C 139.142 90.736,139.230 85.471,139.183 80.478 C 139.030 64.311,138.472 64.221,145.364 81.484 L 150.600 94.600 154.040 94.715 L 157.479 94.829 158.727 91.915 C 160.523 87.717,167.600 69.681,167.600 69.300 C 167.600 69.123,167.915 68.533,168.300 67.989 C 168.974 67.037,169.008 67.518,169.200 80.800 L 169.400 94.600 174.000 94.600 L 178.600 94.600 178.703 71.426 C 178.785 53.151,178.700 48.184,178.303 47.932 C 177.451 47.391,168.237 47.535,167.512 48.100 C 166.964 48.528,165.587 51.564,163.837 56.200 C 160.490 65.065,154.561 79.188,154.229 79.081 C 153.993 79.005,153.209 77.426,152.486 75.571 C 151.763 73.717,150.644 70.940,149.998 69.400 C 149.352 67.860,147.194 62.468,145.203 57.418 C 143.211 52.368,141.360 48.095,141.091 47.924 C 140.448 47.516,131.147 47.519,130.503 47.928 M188.497 47.904 C 188.100 48.178,188.015 53.163,188.097 71.426 L 188.200 94.600 193.300 94.712 L 198.400 94.824 198.400 87.436 C 198.400 78.777,197.892 79.514,203.959 79.366 C 218.354 79.013,223.715 74.262,223.101 62.400 C 222.698 54.618,219.827 50.640,213.200 48.680 C 210.353 47.837,189.541 47.184,188.497 47.904 M238.966 47.906 C 238.727 48.068,237.394 51.530,236.003 55.600 C 234.612 59.670,232.409 66.060,231.108 69.800 C 224.925 87.568,222.800 93.850,222.800 94.359 C 222.800 95.020,233.049 94.963,233.472 94.300 C 233.647 94.025,234.281 92.105,234.879 90.033 C 235.478 87.962,236.200 86.120,236.484 85.940 C 237.531 85.275,252.677 85.534,253.371 86.229 C 253.717 86.574,254.000 86.700,254.000 86.509 C 254.000 85.364,252.845 85.200,244.769 85.200 C 235.223 85.200,236.030 84.848,234.580 89.644 C 233.089 94.574,233.616 94.200,228.156 94.200 C 224.166 94.200,223.410 94.103,223.465 93.600 C 223.501 93.270,224.473 90.300,225.625 87.000 C 226.778 83.700,228.216 79.560,228.821 77.800 C 229.427 76.040,231.662 69.560,233.788 63.400 C 235.915 57.240,237.912 51.368,238.227 50.352 L 238.800 48.503 241.100 48.318 C 243.234 48.145,245.311 48.148,249.449 48.328 L 251.097 48.400 252.310 51.900 C 252.978 53.825,254.515 58.280,255.727 61.800 C 256.939 65.320,258.506 69.730,259.210 71.600 C 259.914 73.470,260.724 75.810,261.009 76.800 C 261.294 77.790,262.627 81.660,263.971 85.400 C 267.261 94.554,267.364 94.172,261.559 94.312 C 256.191 94.442,256.417 94.578,255.394 90.600 C 254.998 89.060,254.509 87.620,254.308 87.400 C 253.865 86.914,254.212 88.430,255.362 92.000 L 256.200 94.600 261.700 94.711 C 268.532 94.850,268.292 95.962,264.014 84.000 C 262.873 80.810,261.611 77.210,261.209 76.000 C 260.807 74.790,259.460 70.920,258.215 67.400 C 256.971 63.880,255.526 59.740,255.005 58.200 C 252.439 50.618,251.512 48.192,251.076 47.915 C 250.464 47.525,239.540 47.518,238.966 47.906 M273.467 47.867 C 272.838 48.495,273.292 48.718,274.497 48.372 C 275.967 47.951,278.332 47.898,280.404 48.241 C 281.829 48.477,282.097 48.774,285.600 54.002 C 286.150 54.823,287.050 56.118,287.600 56.880 C 288.150 57.642,289.252 59.241,290.048 60.433 C 290.845 61.625,293.051 64.850,294.950 67.600 C 296.849 70.350,298.628 72.936,298.902 73.346 C 302.226 78.325,302.281 78.129,302.129 62.000 C 302.064 55.070,302.163 49.160,302.349 48.867 C 302.756 48.227,306.930 47.785,308.964 48.167 L 310.407 48.437 310.303 71.319 L 310.200 94.200 307.263 94.318 C 303.908 94.453,303.793 94.391,301.551 91.216 C 300.691 89.997,298.824 87.380,297.403 85.400 C 295.982 83.420,294.002 80.630,293.004 79.200 C 292.005 77.770,290.469 75.610,289.590 74.400 C 288.710 73.190,286.908 70.625,285.585 68.700 C 283.577 65.779,282.426 64.713,281.913 65.300 C 281.865 65.355,281.730 71.880,281.613 79.800 L 281.400 94.200 277.299 94.200 C 275.044 94.200,273.199 94.335,273.199 94.500 C 273.200 94.665,275.168 94.800,277.573 94.800 C 283.019 94.800,282.532 96.344,282.348 79.668 C 282.178 64.288,282.115 64.517,285.293 69.080 C 288.838 74.169,293.651 80.971,298.682 88.000 L 303.405 94.600 307.106 94.715 L 310.806 94.830 310.703 71.315 L 310.600 47.800 306.659 47.685 C 301.103 47.523,301.575 46.206,301.611 61.757 C 301.635 72.026,301.531 75.000,301.147 75.000 C 300.875 75.000,299.042 72.660,297.073 69.800 C 291.810 62.155,287.737 56.217,285.276 52.600 C 281.724 47.379,282.063 47.600,277.597 47.600 C 275.472 47.600,273.613 47.720,273.467 47.867 M332.566 47.906 C 332.073 48.239,332.263 47.734,327.808 60.600 C 325.980 65.880,322.666 75.449,320.442 81.863 C 315.412 96.377,315.269 94.800,321.620 94.800 L 326.841 94.800 327.366 93.500 C 327.654 92.785,328.215 90.940,328.611 89.400 C 329.658 85.335,329.001 85.600,338.016 85.600 C 345.933 85.600,347.200 85.724,347.200 86.498 C 347.200 86.726,347.748 88.686,348.417 90.856 L 349.634 94.800 355.217 94.800 C 361.854 94.800,361.499 95.427,358.954 88.200 C 357.947 85.340,356.884 82.280,356.593 81.400 C 356.301 80.520,354.897 76.470,353.472 72.400 C 352.047 68.330,349.598 61.310,348.028 56.800 C 346.459 52.290,344.876 48.375,344.511 48.100 C 343.780 47.549,333.343 47.380,332.566 47.906 M107.944 48.633 C 108.140 48.799,112.109 59.970,114.398 66.800 C 115.024 68.670,116.468 72.810,117.606 76.000 C 122.358 89.323,123.653 93.284,123.440 93.839 C 123.257 94.318,122.327 94.404,118.354 94.312 L 113.492 94.200 112.565 91.400 C 112.055 89.860,111.629 88.235,111.619 87.789 C 111.562 85.314,111.130 85.200,101.826 85.200 C 91.571 85.200,92.863 84.368,90.646 92.400 L 90.149 94.200 85.274 94.312 C 81.872 94.391,80.400 94.289,80.400 93.976 C 80.400 93.478,85.831 77.067,86.415 75.800 C 86.618 75.360,87.610 72.570,88.621 69.600 C 91.509 61.108,93.934 54.029,94.923 51.200 L 95.832 48.600 99.216 48.387 C 102.312 48.192,107.598 48.341,107.944 48.633 M140.700 48.467 C 141.195 48.639,141.600 48.965,141.600 49.190 C 141.600 49.609,146.758 62.780,147.816 65.060 C 148.137 65.754,148.400 66.573,148.400 66.880 C 148.400 67.188,148.552 67.611,148.737 67.820 C 148.922 68.029,150.025 70.630,151.188 73.600 C 153.407 79.265,153.912 80.154,154.650 79.686 C 154.897 79.528,157.390 73.640,160.190 66.600 C 162.990 59.560,165.521 53.260,165.815 52.600 C 166.109 51.940,166.622 50.725,166.955 49.900 C 167.544 48.438,167.613 48.399,169.680 48.369 C 170.846 48.353,172.840 48.269,174.111 48.183 C 175.381 48.098,176.866 48.197,177.411 48.404 L 178.400 48.780 178.400 71.141 C 178.400 97.017,178.932 94.482,173.540 94.316 L 169.800 94.200 169.715 80.448 C 169.667 72.884,169.540 66.607,169.432 66.498 C 168.842 65.909,168.041 67.111,166.665 70.651 C 163.591 78.563,160.738 85.819,160.394 86.600 C 160.201 87.040,159.462 88.840,158.752 90.600 C 157.215 94.414,157.248 94.386,154.176 94.394 C 150.613 94.403,151.339 95.564,145.415 80.400 C 144.169 77.210,142.998 74.240,142.814 73.800 C 142.629 73.360,141.977 71.740,141.365 70.200 C 138.715 63.536,138.432 64.511,138.305 80.745 L 138.200 94.200 134.400 94.200 L 130.600 94.200 130.497 71.327 L 130.393 48.454 131.497 48.273 C 133.245 47.986,139.709 48.122,140.700 48.467 M212.313 48.965 C 219.763 50.838,222.613 55.008,222.589 64.000 C 222.561 74.629,217.202 78.788,203.524 78.797 C 197.792 78.801,198.247 78.126,198.000 87.000 L 197.800 94.200 193.432 94.314 C 190.207 94.399,188.979 94.294,188.739 93.914 C 187.992 92.738,188.341 48.877,189.100 48.404 C 190.212 47.711,209.148 48.169,212.313 48.965 M344.369 48.609 C 344.700 48.940,347.308 55.996,349.392 62.200 C 349.687 63.080,350.860 66.410,351.997 69.600 C 353.134 72.790,354.298 76.210,354.583 77.200 C 354.869 78.190,355.585 80.260,356.175 81.800 C 361.098 94.647,361.117 94.400,355.249 94.400 C 349.550 94.400,350.078 94.834,348.183 88.600 C 347.081 84.975,347.717 85.200,338.584 85.200 C 328.830 85.200,329.443 84.999,328.398 88.534 C 327.932 90.110,327.329 92.030,327.059 92.800 L 326.568 94.200 321.635 94.313 L 316.702 94.425 316.910 93.513 C 317.025 93.011,318.139 89.720,319.385 86.200 C 321.595 79.961,324.054 72.881,326.400 66.000 C 327.038 64.130,328.578 59.720,329.822 56.200 C 331.067 52.680,332.174 49.495,332.283 49.122 C 332.520 48.314,333.437 48.198,339.487 48.207 C 341.954 48.210,344.152 48.392,344.369 48.609 M101.738 55.908 C 101.303 56.183,100.474 58.599,98.411 65.600 C 97.925 67.250,97.255 69.500,96.923 70.600 C 94.850 77.461,94.783 77.356,101.386 77.532 C 109.227 77.741,108.933 78.579,105.354 66.200 C 104.781 64.220,104.088 61.610,103.813 60.400 C 103.114 57.317,102.299 55.553,101.738 55.908 M244.485 56.098 C 244.240 56.393,243.411 58.877,242.644 61.618 C 241.877 64.358,240.705 68.444,240.040 70.698 C 237.960 77.749,237.780 77.494,244.874 77.560 C 249.214 77.601,251.200 77.214,251.200 76.330 C 251.200 75.949,251.093 75.947,250.720 76.320 C 250.393 76.647,248.468 76.800,244.668 76.800 L 239.095 76.800 239.339 75.300 C 239.550 73.999,242.680 62.795,244.109 58.229 C 244.893 55.721,245.332 56.148,246.453 60.506 C 248.546 68.647,250.571 75.688,250.704 75.289 C 250.834 74.899,250.003 71.507,248.626 66.800 C 248.272 65.590,247.523 62.800,246.962 60.600 C 245.864 56.298,245.248 55.178,244.485 56.098 M198.480 56.480 C 197.805 57.155,197.805 70.445,198.480 71.120 C 199.027 71.667,205.055 71.741,208.109 71.238 C 214.339 70.213,214.780 57.998,208.643 56.452 C 206.205 55.839,199.102 55.858,198.480 56.480 M337.380 57.387 C 337.061 58.150,336.800 59.049,336.800 59.386 C 336.800 59.722,336.458 61.033,336.041 62.298 C 333.726 69.314,331.929 76.489,332.376 76.936 C 332.995 77.555,341.846 77.805,343.300 77.244 C 344.716 76.698,344.736 75.531,343.400 71.439 C 342.850 69.754,342.400 68.072,342.400 67.701 C 342.400 67.330,342.146 66.301,341.836 65.413 C 341.526 64.526,340.776 62.045,340.170 59.900 C 338.966 55.642,338.343 55.081,337.380 57.387 M209.761 57.338 C 213.359 59.695,213.462 67.539,209.930 70.128 C 208.519 71.162,199.348 71.678,198.765 70.757 C 198.337 70.081,198.277 57.059,198.700 56.626 C 199.322 55.988,208.614 56.586,209.761 57.338 M102.812 58.500 C 103.304 60.386,106.153 70.689,107.036 73.773 C 107.954 76.983,108.271 76.800,101.800 76.800 C 95.111 76.800,95.537 77.196,96.966 72.306 C 100.470 60.316,101.228 57.745,101.391 57.300 C 101.756 56.308,102.378 56.834,102.812 58.500 M340.472 62.623 C 341.317 65.690,342.457 69.820,343.007 71.800 C 344.515 77.239,344.918 76.800,338.424 76.800 C 331.751 76.800,332.118 77.234,333.836 71.369 C 335.768 64.775,337.002 60.509,337.568 58.475 C 338.300 55.841,338.801 56.557,340.472 62.623 M91.428 120.498 C 91.288 123.194,91.315 191.550,91.487 272.400 L 91.800 419.400 126.892 419.502 L 161.984 419.604 162.196 418.702 C 162.312 418.206,162.361 349.850,162.304 266.800 L 162.200 115.800 126.940 115.698 L 91.681 115.596 91.428 120.498 M239.869 115.864 C 239.485 116.249,239.547 418.497,239.931 419.102 C 240.184 419.500,247.509 419.583,275.225 419.502 L 310.200 419.400 310.200 267.600 L 310.200 115.800 275.169 115.698 C 255.902 115.642,240.017 115.717,239.869 115.864 M161.699 267.100 C 161.757 353.249,161.649 418.416,161.449 418.702 C 161.171 419.100,153.929 419.183,126.649 419.102 L 92.200 419.000 91.904 278.000 C 91.741 200.450,91.716 132.275,91.849 126.500 L 92.091 116.000 126.844 116.000 L 161.598 116.000 161.699 267.100 M309.748 116.900 C 310.064 118.081,310.074 417.743,309.757 418.567 C 309.438 419.400,241.311 419.551,240.480 418.720 C 239.971 418.211,239.735 117.956,240.243 116.633 C 240.462 116.063,243.896 116.000,274.996 116.000 L 309.507 116.000 309.748 116.900 M389.034 376.600 C 388.830 403.565,388.624 406.222,386.120 414.200 C 383.942 421.142,378.876 429.229,374.882 432.139 C 374.232 432.613,372.733 433.738,371.550 434.639 C 365.165 439.505,351.609 443.391,344.000 442.537 L 341.400 442.245 345.662 441.756 C 361.541 439.933,372.321 434.732,379.287 425.531 C 383.845 419.510,385.013 416.584,387.642 404.600 C 388.046 402.760,388.212 394.221,388.355 368.000 C 388.510 339.548,388.597 335.447,388.875 343.600 C 389.059 348.990,389.130 363.840,389.034 376.600 M375.620 402.429 C 373.482 417.047,364.670 425.882,349.600 428.516 C 348.706 428.673,348.727 428.696,349.800 428.736 C 350.460 428.761,351.720 428.595,352.600 428.368 C 353.480 428.140,354.830 427.793,355.600 427.596 C 366.515 424.800,374.697 414.446,376.221 401.500 C 376.632 398.017,376.158 398.748,375.620 402.429 M47.907 429.215 C 50.317 430.183,56.233 430.526,67.800 430.367 C 74.400 430.277,100.860 430.202,126.600 430.201 L 173.400 430.200 175.000 431.065 C 176.580 431.919,178.231 433.490,179.946 435.771 C 180.430 436.415,184.433 440.682,188.842 445.253 C 193.250 449.825,197.217 454.023,197.658 454.582 C 198.880 456.136,200.114 455.896,202.092 453.721 C 203.031 452.687,206.230 449.496,209.200 446.629 C 212.170 443.762,216.850 439.136,219.600 436.349 C 224.593 431.288,225.759 430.475,229.600 429.371 C 231.179 428.918,231.253 428.851,230.200 428.827 C 227.022 428.757,224.785 430.519,212.023 443.149 C 205.325 449.777,199.638 455.200,199.384 455.200 C 199.130 455.200,197.865 454.075,196.573 452.700 C 195.281 451.325,191.535 447.410,188.249 444.000 C 184.963 440.590,181.110 436.397,179.687 434.682 C 178.225 432.921,176.382 431.181,175.450 430.682 L 173.800 429.800 112.600 429.783 C 66.110 429.771,51.015 429.651,49.800 429.286 C 47.943 428.727,46.564 428.676,47.907 429.215 M280.800 429.320 C 338.169 429.785,345.825 429.777,347.400 429.247 C 348.290 428.947,347.774 428.914,345.400 429.121 C 343.640 429.275,339.410 429.364,336.000 429.320 C 332.590 429.277,307.930 429.171,281.200 429.085 L 232.600 428.929 280.800 429.320 M169.788 442.375 C 172.004 442.805,175.153 444.580,174.630 445.103 C 174.507 445.226,173.281 444.733,171.904 444.009 L 169.400 442.691 161.098 442.410 C 156.531 442.255,152.662 441.995,152.498 441.832 C 152.043 441.376,167.081 441.849,169.788 442.375 M234.968 442.348 C 235.087 442.540,234.480 442.791,233.621 442.906 C 228.756 443.559,223.096 448.048,211.817 460.200 C 204.683 467.886,203.601 468.970,202.466 469.571 C 200.483 470.620,201.125 469.411,204.010 466.665 C 205.665 465.089,209.353 461.280,212.205 458.200 C 221.833 447.802,227.178 443.089,230.143 442.382 C 231.928 441.956,234.714 441.937,234.968 442.348 M183.012 453.121 C 182.743 453.390,181.600 452.392,181.600 451.889 C 181.600 451.662,181.961 451.803,182.402 452.202 C 182.844 452.602,183.118 453.015,183.012 453.121 M185.212 455.222 C 185.441 455.650,185.545 456.000,185.443 456.000 C 185.096 456.000,184.000 454.745,184.000 454.348 C 184.000 453.785,184.721 454.305,185.212 455.222 " stroke="none" fill="#dab1b1" fill-rule="evenodd"></path></g></svg>